<svg width="20" height="20" viewBox="0 0 20 20" fill="none" xmlns="http://www.w3.org/2000/svg">
<path d="M9 5H11C11.5304 5 12.0391 5.21071 12.4142 5.58579C12.7893 5.96086 13 6.46957 13 7C13 7.55228 12.5523 8 12 8H11.5C11.2239 8 11 7.77614 11 7.5C11 7.22386 10.7761 7 10.5 7H10C9.44771 7 9 7.44772 9 8V12C9 12.5523 9.44771 13 10 13H10.5C10.7761 13 11 12.7761 11 12.5C11 12.2239 11.2239 12 11.5 12H12C12.5523 12 13 12.4477 13 13C13 13.5304 12.7893 14.0391 12.4142 14.4142C12.0391 14.7893 11.5304 15 11 15H9C8.46957 15 7.96086 14.7893 7.58579 14.4142C7.21071 14.0391 7 13.5304 7 13V7C7 6.46957 7.21071 5.96086 7.58579 5.58579C7.96086 5.21071 8.46957 5 9 5ZM10 0C11.3132 0 12.6136 0.258658 13.8268 0.761205C15.0401 1.26375 16.1425 2.00035 17.0711 2.92893C17.9997 3.85752 18.7362 4.95991 19.2388 6.17317C19.7413 7.38642 20 8.68678 20 10C20 12.6522 18.9464 15.1957 17.0711 17.0711C15.1957 18.9464 12.6522 20 10 20C8.68678 20 7.38642 19.7413 6.17317 19.2388C4.95991 18.7362 3.85752 17.9997 2.92893 17.0711C1.05357 15.1957 0 12.6522 0 10C0 7.34784 1.05357 4.8043 2.92893 2.92893C4.8043 1.05357 7.34784 0 10 0ZM10 2C7.87827 2 5.84344 2.84285 4.34315 4.34315C2.84285 5.84344 2 7.87827 2 10C2 12.1217 2.84285 14.1566 4.34315 15.6569C5.84344 17.1571 7.87827 18 10 18C12.1217 18 14.1566 17.1571 15.6569 15.6569C17.1571 14.1566 18 12.1217 18 10C18 7.87827 17.1571 5.84344 15.6569 4.34315C14.1566 2.84285 12.1217 2 10 2Z" fill="white"/>
</svg>
