<svg width="20" height="20" viewBox="0 0 20 20" fill="none" xmlns="http://www.w3.org/2000/svg">
<path d="M7 9C7 6.79086 8.79086 5 11 5C11.5304 5 12.0391 5.21071 12.4142 5.58579C12.7893 5.96086 13 6.46957 13 7V9C13 9.53043 12.7893 10.0391 12.4142 10.4142C12.0391 10.7893 11.5304 11 11 11C9.89543 11 9 11.8954 9 13V14C9 14.5523 8.55229 15 8 15C7.44772 15 7 14.5523 7 14V9ZM10 7C9.44771 7 9 7.44772 9 8C9 8.55229 9.44771 9 10 9C10.5523 9 11 8.55229 11 8C11 7.44772 10.5523 7 10 7ZM-nan -nanL10 0C11.3132 0 12.6136 0.258658 13.8268 0.761205C15.0401 1.26375 16.1425 2.00035 17.0711 2.92893C17.9997 3.85752 18.7362 4.95991 19.2388 6.17317C19.7413 7.38642 20 8.68678 20 10C20 12.6522 18.9464 15.1957 17.0711 17.0711C15.1957 18.9464 12.6522 20 10 20C8.68678 20 7.38642 19.7413 6.17317 19.2388C4.95991 18.7362 3.85752 17.9997 2.92893 17.0711C1.05357 15.1957 0 12.6522 0 10C0 7.34784 1.05357 4.8043 2.92893 2.92893C4.8043 1.05357 7.34784 0 10 0L-nan -nanZM-nan -nanL10 2C7.87827 2 5.84344 2.84285 4.34315 4.34315C2.84285 5.84344 2 7.87827 2 10C2 12.1217 2.84285 14.1566 4.34315 15.6569C5.84344 17.1571 7.87827 18 10 18C12.1217 18 14.1566 17.1571 15.6569 15.6569C17.1571 14.1566 18 12.1217 18 10C18 7.87827 17.1571 5.84344 15.6569 4.34315C14.1566 2.84285 12.1217 2 10 2L-nan -nanZ" fill="#FFFEFE"/>
</svg>
